#N canvas 54 32 1306 732 12;
#X declare -path ./lib;
#X declare -path ./audios;
#X declare -path else;
#X obj 26 229 bng 30 250 50 0 empty empty empty 17 7 0 10 -4034 -1
-1;
#X obj 26 145 declare -path ./lib;
#X obj 27 77 loadbang;
#X obj 244 75 loadsample-1 1;
#X obj 414 74 loadsample-1 2;
#X obj 757 73 loadsample-1 4;
#X obj 927 73 loadsample-1 5;
#X obj 1100 73 loadsample-1 6;
#X obj 414 186 loadsample-1 8;
#X obj 586 187 loadsample-1 9;
#X obj 757 186 loadsample-1 10;
#X obj 1100 185 loadsample-1 12;
#X obj 242 299 loadsample-1 13;
#X obj 414 300 loadsample-1 14;
#X obj 25 171 declare -path ./audios;
#X obj 757 300 loadsample-1 16;
#X obj 928 301 loadsample-1 17;
#X obj 1099 301 loadsample-1 18;
#X obj 242 415 loadsample-1 19;
#X obj 414 416 loadsample-1 20;
#X obj 586 416 loadsample-1 21;
#X obj 757 416 loadsample-1 22;
#X obj 928 417 loadsample-1 23;
#X obj 1099 417 loadsample-1 24;
#X obj 241 530 loadsample-1 25;
#X obj 413 531 loadsample-1 26;
#X obj 585 531 loadsample-1 27;
#X obj 756 531 loadsample-1 28;
#X obj 927 532 loadsample-1 29;
#X obj 1098 532 loadsample-1 30;
#X msg 27 103 \; pd dsp 1 \;;
#X obj 586 73 loadsample-1 3;
#X obj 244 186 loadsample-1 7;
#X obj 927 186 loadsample-1 11;
#N canvas 373 329 446 424 load 0;
#X obj 24 19 inlet;
#X obj 43 153 f;
#X obj 76 153 + 1;
#X obj 24 123 t a b;
#X obj 23 182 pack s f;
#X msg 23 209 \; play-file-\$2 \$1;
#X obj 24 95 else/dir -ext .wav;
#X msg 70 69 reset \, open audios;
#X obj 105 120 else/display 4;
#X obj 149 120 else/display 2;
#X obj 105 179 outlet;
#X obj 157 179 outlet;
#X obj 24 44 t b 1 b;
#X connect 0 0 12 0;
#X connect 1 0 2 0;
#X connect 1 0 4 1;
#X connect 2 0 1 1;
#X connect 3 0 4 0;
#X connect 3 1 1 0;
#X connect 4 0 5 0;
#X connect 6 0 3 0;
#X connect 6 2 8 0;
#X connect 6 3 9 0;
#X connect 7 0 6 0;
#X connect 8 0 10 0;
#X connect 9 0 11 0;
#X connect 12 0 6 0;
#X connect 12 1 1 1;
#X connect 12 2 7 0;
#X restore 26 266 pd load;
#X obj 26 294 else/display 4;
#X obj 70 294 else/display 2;
#X obj 586 300 loadsample-1 15;
#X obj 25 197 declare -path else;
#X obj 19 17 cnv 15 301 42 empty empty ELUNM_playback 20 20 2 25 -262130
-1 0;
#X connect 0 0 34 0;
#X connect 2 0 30 0;
#X connect 34 0 35 0;
#X connect 34 1 36 0;
