#N canvas 173 160 562 469 10;
#N canvas 0 50 450 250 (subpatch) 0;
#X array sampler-array-\$1 959760 float 2;
#X coords 0 1 959760 -1 90 45 1 0 0;
#X restore 108 150 graph;
#X obj 104 340 soundfiler;
#X floatatom 105 367 10 0 0 0 - - -;
#X text 171 371 tamaño en muestras;
#X text 124 295 cargar muestras a la tabla;
#X obj 104 251 symbol;
#X msg 104 310 read -resize \$1 sampler-array-\$2;
#X obj 104 274 pack s \$1;
#X obj 395 343 *~;
#X obj 395 364 outlet~;
#X symbolatom 164 120 14 0 0 0 filename: - -;
#X obj 102 11 loadbang;
#X obj 102 36 \$1;
#X obj 55 37 symbol;
#X msg 102 66 \; sampler-array-\$1 const 0 \;;
#X obj 104 395 / 44100;
#X floatatom 104 420 10 0 0 0 - - -;
#X obj 206 150 bng 15 250 50 0 empty empty empty 17 7 0 10 -262144
-1 -1;
#X obj 128 219 r play-file-\$1;
#X floatatom 450 367 5 0 0 0 - - -;
#X obj 346 365 dac~;
#X obj 346 342 hip~ 5;
#X obj 395 294 line~;
#X obj 395 252 * 441;
#X floatatom 228 150 0 0 1000 0 - - -;
#X obj 395 273 pack 0 100;
#X obj 346 317 tabread4~ sampler-array-\$1;
#X obj 234 258 tabplay~ sampler-array-\$1;
#X obj 450 345 env~ \$1;
#X connect 1 0 2 0;
#X connect 2 0 15 0;
#X connect 5 0 10 0;
#X connect 5 0 7 0;
#X connect 6 0 1 0;
#X connect 7 0 6 0;
#X connect 8 0 9 0;
#X connect 11 0 12 0;
#X connect 11 0 13 0;
#X connect 12 0 14 0;
#X connect 13 0 10 0;
#X connect 15 0 16 0;
#X connect 17 0 5 0;
#X connect 17 0 27 0;
#X connect 18 0 5 0;
#X connect 21 0 20 0;
#X connect 21 0 20 1;
#X connect 22 0 26 0;
#X connect 23 0 25 0;
#X connect 24 0 23 0;
#X connect 25 0 22 0;
#X connect 26 0 8 0;
#X connect 26 0 21 0;
#X connect 26 0 28 0;
#X connect 27 0 21 0;
#X connect 28 0 19 0;
#X coords 0 -1 1 1 160 105 1 100 100;
